<svg width="558" height="304" viewBox="0 0 558 304" fill="none" xmlns="http://www.w3.org/2000/svg">
<path d="M346.19 30.04C345.85 39.1103 338.217 46.192 329.151 45.876C320.073 45.5401 312.995 37.9229 313.339 28.837C313.671 19.7862 321.284 12.665 330.37 13.025C339.421 13.3375 346.511 20.9703 346.19 30.041V30.04Z" fill="white"/>
<path d="M42.9 251.53C13.638 252.909 -13.967 260.366 44.9703 267.206C103.927 274.011 351.33 275.444 393.35 272.151C435.366 268.858 512.9 259.038 527.85 250.276C542.823 241.518 542.932 237.796 518.245 240.397C493.526 243.034 410.275 246.64 328.755 247.628C247.224 248.628 52.1148 251.105 42.9048 251.53L42.9 251.53Z" fill="white"/>
<path d="M318.56 265.84C316.505 265.84 313.939 265.582 310.716 265.043L290.513 261.715L289.095 261.719L287.896 260.582C286.814 259.367 285.779 257.094 287.173 245.508C287.509 242.747 287.783 239.668 288.087 236.368C289.404 221.825 291.044 203.731 299.107 190.001C299.272 189.747 304.631 181.364 303.705 155.126L303.807 135.099L286.702 103.161C286.534 102.915 280.151 92.5276 293.213 78.2226C304.822 65.5546 316.076 52.2776 316.19 52.1446L316.69 51.5626L317.417 51.3087C317.585 51.254 321.667 49.8595 326.409 49.8595C335.503 49.8595 341.171 55.0275 341.956 64.0395C343.066 76.5315 344.386 82.6335 344.941 84.8055C346.151 85.3953 348.675 86.3797 352.093 86.3797C357.167 86.3797 362.37 84.2899 367.542 80.1688C371.503 77.0165 374.983 75.4149 377.89 75.4149C381.324 75.4149 383.808 77.704 384.077 81.1102C384.456 85.8993 380.46 91.7742 373.292 93.2392C370.3 95.3954 355.96 105.298 345.456 105.298C344.695 105.298 343.96 105.247 343.261 105.146C342.249 105.892 340.382 107.704 340.269 111.009C340.023 117.392 335.992 158.126 335.824 159.857L332.452 176.259L332.316 176.576C332.312 176.587 327.734 185.966 321.984 198.443C316.453 210.494 312.581 233.029 314.238 238.634C315.32 242.356 322.292 244.817 325.633 245.997C326.922 246.45 327.918 246.825 328.433 247.106C330.121 248.02 330.949 249.907 330.473 251.794C329.965 253.805 327.824 256.134 323.473 256.497C325.09 258.216 326.312 260.329 325.613 262.466C324.515 265.841 320.035 265.841 318.562 265.841L318.56 265.84ZM304.083 90.19C301.939 92.6431 300.716 95.2916 300.868 97.5377C300.997 99.5924 302.251 100.792 302.263 100.803L302.685 101.163L305.064 105.838L307.517 87.3695L304.083 90.19Z" fill="white"/>
<path d="M326.41 52.66C331.902 52.66 338.34 54.7616 339.168 64.285C340.68 81.308 342.566 86.683 342.566 86.683C342.566 86.683 346.191 89.1791 352.094 89.1791C356.664 89.1791 362.606 87.6791 369.285 82.3588C373.046 79.3627 375.906 78.2143 377.886 78.2143C383.98 78.2143 381.828 89.0463 372.164 90.6013C372.164 90.6013 356.199 102.499 345.457 102.499C344.5 102.499 343.586 102.406 342.73 102.202C342.73 102.202 337.703 104.554 337.476 110.917C337.23 117.281 333.043 159.585 333.043 159.585L329.796 175.351C329.796 175.351 325.203 184.757 319.437 197.281C313.687 209.804 309.648 233.004 311.551 239.433C313.422 245.875 325.012 248.433 327.078 249.574C328.851 250.531 327.398 253.758 322.269 253.758C321.375 253.758 320.367 253.656 319.246 253.434C311.742 251.906 310.437 251.195 310.437 251.195L319.164 256.438C319.164 256.438 328.215 263.059 318.57 263.059C316.8 263.059 314.386 262.836 311.179 262.301C290.527 258.902 290.527 258.902 290.527 258.902C290.527 258.902 290.461 258.945 290.359 258.945C289.859 258.945 288.512 257.922 289.961 245.863C291.73 231.304 291.953 207.742 301.531 191.437C301.531 191.437 307.496 183.027 306.515 155.042L306.621 134.417L289.183 101.855C289.183 101.855 283.527 93.0077 295.296 80.1324C307.077 67.2804 318.339 53.9764 318.339 53.9764C318.335 53.9764 322.074 52.66 326.409 52.66L326.41 52.66ZM306.651 115.121L311.226 80.699L302.3 88.0232C293.983 97.3591 300.429 102.918 300.429 102.918L306.651 115.121V115.121ZM326.409 47.0592C321.284 47.0592 316.968 48.4967 316.491 48.6647L315.042 49.1647L314.05 50.3366C313.933 50.4655 302.714 63.7076 291.148 76.3326C277.867 90.8716 283.011 102.271 284.226 104.485L300.999 135.801L300.898 155.008C301.776 180.117 296.898 188.25 296.851 188.328L296.718 188.523L296.691 188.589C288.308 202.862 286.64 221.312 285.296 236.128C284.999 239.394 284.717 242.445 284.389 245.171C282.991 256.792 283.807 260.214 285.795 262.452C286.956 263.761 288.6 264.519 290.315 264.53L310.26 267.812C313.635 268.37 316.354 268.64 318.561 268.64C323.854 268.64 327.123 266.859 328.272 263.343C328.862 261.523 328.647 259.804 327.998 258.245C331.01 256.913 332.651 254.581 333.186 252.483C333.987 249.331 332.596 246.179 329.74 244.644C328.944 244.206 327.947 243.847 326.572 243.362C320.619 241.261 317.377 239.413 316.928 237.874C315.697 233.702 318.799 212.093 324.526 199.616C330.194 187.311 334.78 177.905 334.823 177.811L335.135 177.174L335.276 176.479L338.522 160.713L338.584 160.428L338.612 160.135C338.78 158.401 342.823 117.58 343.069 111.131C343.123 109.662 343.666 108.678 344.205 108.061C344.616 108.084 345.03 108.1 345.459 108.1C356.389 108.1 370.334 98.7872 374.471 95.8457C382.753 93.8574 387.338 86.7441 386.873 80.8887C386.483 76.0176 382.791 72.6114 377.893 72.6114C374.287 72.6114 370.334 74.3653 365.803 77.9747C361.139 81.6935 356.529 83.5763 352.1 83.5763C350.073 83.5763 348.455 83.1779 347.338 82.7794C346.729 80.0021 345.662 74.1505 344.744 63.7834C343.83 53.3104 336.975 47.0564 326.408 47.0564L326.409 47.0592Z" fill="white"/>
<path d="M198.67 194.91C212.205 188.051 223.225 196.449 211.361 211.328C199.502 226.191 180.916 244.137 180.916 244.137C180.916 244.137 171.877 254.442 165.002 242.211C158.147 229.981 157.553 227.981 157.553 227.981C157.553 227.981 151.201 219.766 162.74 213.543C174.263 207.293 198.67 194.91 198.67 194.91L198.67 194.91Z" fill="white"/>
<path d="M375.23 80.79L377.496 84.0712L184.336 217.341L182.07 214.06L375.23 80.79Z" fill="white"/>
</svg>
